<?xml version="1.0" standalone="no"?>
<!DOCTYPE svg PUBLIC "-//W3C//DTD SVG 20010904//EN"
 "http://www.w3.org/TR/2001/REC-SVG-20010904/DTD/svg10.dtd">
<svg version="1.0" xmlns="http://www.w3.org/2000/svg"
 width="640.000000pt" height="640.000000pt" viewBox="0 0 640.000000 640.000000"
 preserveAspectRatio="xMidYMid meet">
<metadata>
Created by potrace 1.14, written by Peter Selinger 2001-2017
</metadata>
<g transform="translate(0.000000,640.000000) scale(0.100000,-0.100000)"
fill="#000000" stroke="none">
<path d="M0 4909 c0 -1007 3 -1488 10 -1484 6 4 8 10 5 14 -2 5 2 50 11 101 8
51 16 111 19 134 4 42 28 215 71 510 14 94 27 188 30 210 2 23 13 97 24 166
18 117 41 282 76 545 8 61 19 137 24 170 5 33 18 123 29 200 42 299 61 434 75
540 9 61 23 164 31 230 9 66 18 128 21 138 5 16 -10 17 -210 17 l-216 0 0
-1491z"/>
<path d="M5664 6349 c-28 -4 -59 -11 -70 -17 -10 -5 -39 -12 -64 -14 -45 -5
-166 -55 -157 -65 8 -7 -76 -103 -90 -103 -5 0 -16 8 -25 18 -8 9 -30 30 -47
45 -17 16 -31 32 -31 37 0 16 -34 21 -42 5 -5 -8 -22 -15 -38 -15 -30 0 -72
-41 -93 -90 -6 -14 -19 -34 -29 -45 -15 -17 -23 -40 -27 -76 -1 -3 -28 -34
-60 -69 -34 -36 -61 -75 -65 -92 -7 -37 1 -53 20 -37 10 8 14 8 14 0 0 -6 -12
-16 -27 -22 -56 -22 -113 -52 -113 -60 0 -5 -5 -9 -12 -9 -6 0 -21 -8 -32 -18
-12 -10 -46 -24 -76 -32 -65 -15 -100 -33 -158 -79 -41 -33 -72 -80 -72 -107
0 -7 -5 -25 -10 -39 -8 -21 -13 -25 -24 -16 -10 9 -27 3 -72 -24 -33 -19 -72
-47 -89 -62 -16 -14 -41 -33 -55 -41 -27 -17 -90 -79 -90 -89 0 -4 -6 -14 -14
-22 -19 -21 -56 -89 -56 -102 0 -13 -84 -131 -105 -149 -8 -7 -15 -19 -15 -26
0 -8 -8 -22 -17 -33 -10 -10 -27 -30 -38 -44 -11 -13 -24 -22 -29 -19 -5 3 -7
-5 -4 -16 4 -12 3 -22 -1 -22 -7 0 -31 -58 -31 -74 0 -5 7 -2 16 5 17 14 22
16 73 25 27 6 37 2 57 -20 14 -14 31 -26 39 -26 8 0 15 -7 15 -15 0 -9 9 -15
23 -15 12 0 36 -8 54 -18 17 -9 51 -28 75 -41 23 -13 52 -31 63 -42 11 -10 23
-18 27 -19 28 -4 67 -24 72 -36 3 -8 11 -14 18 -14 8 0 21 -9 31 -20 9 -11 25
-20 35 -20 10 0 29 -8 42 -17 14 -10 39 -25 55 -33 27 -14 30 -20 30 -63 0
-40 -5 -52 -27 -72 -14 -13 -42 -27 -60 -30 -30 -6 -34 -10 -36 -41 -3 -35 11
-45 25 -20 12 22 155 38 223 26 131 -25 130 -25 130 4 0 20 -5 26 -21 26 -50
0 -125 94 -115 144 4 22 3 27 -4 16 -7 -11 -11 -4 -16 28 -4 24 -13 50 -22 58
-13 13 -12 17 1 32 9 9 18 29 22 43 11 44 58 59 164 52 50 -3 91 -10 91 -14 0
-5 3 -8 8 -7 16 4 102 -14 107 -23 4 -5 24 -9 45 -9 21 0 41 -4 45 -9 3 -5 19
-13 36 -16 17 -4 53 -21 81 -38 42 -26 53 -29 77 -20 23 8 32 6 55 -14 26 -22
27 -25 12 -42 -9 -10 -16 -26 -16 -37 0 -11 -5 -25 -12 -32 -9 -9 -7 -16 10
-32 18 -17 34 -20 89 -19 38 1 73 5 78 9 6 4 21 10 35 14 14 3 39 23 57 45 29
35 31 41 20 65 -7 14 -19 26 -28 26 -9 0 -26 9 -39 20 -12 11 -39 23 -59 26
-20 4 -48 15 -63 25 -30 22 -68 25 -68 7 -1 -7 -7 -1 -15 13 -8 15 -21 29 -30
33 -8 3 -15 15 -15 26 0 11 -4 20 -9 20 -9 0 -47 70 -44 81 1 4 -9 17 -22 29
-14 13 -25 34 -25 47 0 12 -9 28 -20 35 -11 7 -20 20 -20 28 0 9 -7 25 -15 36
-8 10 -15 29 -15 42 0 12 -7 33 -15 45 -16 26 -24 193 -10 242 7 26 9 27 16
10 7 -18 8 -17 8 5 1 15 6 31 12 37 10 10 17 94 21 268 1 17 3 24 5 18 6 -16
23 -17 23 -2 0 5 13 24 30 42 18 19 30 43 30 60 0 24 9 32 33 28 4 0 7 10 7
23 0 37 18 76 35 76 8 0 15 6 15 14 0 8 5 18 12 22 7 5 9 2 4 -7 -5 -9 -3 -9
6 1 16 19 122 70 146 70 9 1 28 7 42 15 14 8 33 14 42 15 10 0 59 17 110 39
51 21 120 47 153 57 33 11 66 25 74 33 11 10 29 11 70 6 31 -4 70 -9 86 -10
17 -2 51 -6 76 -10 33 -5 50 -3 60 7 8 8 21 17 30 20 8 3 21 25 29 49 8 24 19
48 25 52 6 5 3 7 -7 3 -18 -5 -26 18 -10 28 17 10 5 74 -19 98 -40 41 -78 60
-102 52 -12 -4 -29 -7 -39 -5 -9 1 -19 -3 -23 -9 -3 -5 -19 -10 -35 -10 -38 0
-60 -9 -60 -25 0 -18 -30 -27 -46 -14 -8 6 -14 24 -14 40 0 19 -6 30 -19 34
-21 6 -94 4 -177 -6z m246 -104 c19 -23 6 -43 -24 -38 -29 6 -32 17 -13 38 16
18 22 18 37 0z m-1433 -1867 c-3 -8 -6 -5 -6 6 -1 11 2 17 5 13 3 -3 4 -12 1
-19z"/>
<path d="M6376 6081 c-3 -5 1 -14 9 -21 13 -10 15 -9 15 9 0 21 -14 28 -24 12z"/>
<path d="M2534 5935 c-56 -54 -65 -58 -108 -40 -20 8 -61 15 -93 15 -41 0 -54
3 -43 10 11 7 3 8 -25 6 -35 -3 -40 -7 -42 -31 -1 -15 5 -34 13 -42 7 -8 14
-23 14 -34 0 -11 5 -28 12 -39 17 -27 -1 -76 -27 -72 -23 5 -46 32 -40 50 6
17 -10 15 -25 -3 -7 -8 -17 -12 -22 -9 -17 11 -88 13 -94 3 -7 -12 -107 -12
-120 0 -14 14 -183 19 -177 5 2 -6 -14 -17 -37 -24 -22 -7 -40 -17 -40 -22 0
-4 -6 -8 -13 -8 -8 0 -22 -9 -32 -20 -10 -11 -22 -17 -26 -14 -5 3 -9 1 -9 -5
0 -5 6 -11 13 -14 9 -3 9 -9 0 -25 -10 -17 -10 -21 5 -25 16 -4 16 -5 0 -6 -9
0 -20 4 -23 9 -12 19 -33 11 -28 -11 3 -12 11 -18 19 -15 18 7 18 -2 1 -18
-17 -17 -60 -15 -69 4 -5 12 -7 12 -7 -2 -1 -20 -16 -24 -26 -8 -3 6 -15 10
-26 10 -10 0 -19 5 -19 10 0 23 -32 7 -54 -27 -18 -27 -30 -68 -41 -137 -17
-106 -36 -156 -60 -156 -8 0 -15 -4 -15 -9 0 -9 -60 -74 -65 -69 -9 9 -7 37 3
73 8 26 8 41 2 45 -7 4 -6 18 3 38 7 18 16 30 19 27 3 -3 4 6 3 20 -2 14 8 47
21 75 13 27 24 56 24 63 0 8 3 17 8 21 4 4 7 11 7 14 1 4 6 17 14 30 7 13 11
28 9 33 -2 6 -13 -9 -25 -33 -52 -104 -163 -339 -163 -344 0 -2 -24 -55 -54
-117 -30 -62 -88 -184 -130 -271 l-76 -160 10 -100 c5 -56 12 -144 16 -196 3
-52 11 -160 19 -240 8 -80 17 -185 20 -235 3 -49 15 -188 26 -308 10 -120 17
-223 13 -228 -14 -24 28 -17 75 12 46 29 55 31 74 20 33 -21 96 -14 212 24
121 40 232 56 245 35 21 -34 212 -3 381 61 30 12 77 28 104 36 28 8 65 21 83
29 18 9 41 12 52 9 11 -4 20 -2 20 4 0 5 19 11 43 13 47 3 50 23 3 23 -17 0
-31 6 -34 15 -3 8 -2 13 1 9 8 -7 127 106 127 120 0 6 -4 11 -10 11 -5 0 -10
-4 -10 -10 0 -5 -4 -10 -10 -10 -19 0 3 30 27 36 27 7 60 67 117 212 42 106
45 127 17 113 -10 -6 -21 -8 -24 -4 -4 3 -12 1 -19 -5 -7 -6 -16 -10 -21 -10
-22 0 -98 -15 -137 -27 -25 -8 -94 -24 -155 -35 -60 -12 -132 -28 -158 -37
-74 -23 -100 -2 -55 47 19 20 20 23 4 17 -28 -11 -86 3 -86 20 0 8 -4 12 -9 9
-5 -3 -11 3 -14 13 -2 11 -15 21 -28 23 -19 2 -23 8 -21 30 4 31 -10 43 -53
47 -8 0 -15 7 -15 15 0 8 -5 16 -11 18 -7 2 -1 16 15 32 14 16 26 35 26 42 0
7 9 18 21 24 11 6 19 16 17 22 -5 13 43 64 55 60 5 -1 6 1 3 6 -2 4 11 23 30
41 19 19 34 40 34 48 0 13 -47 102 -60 113 -9 8 -34 65 -31 73 1 5 -12 24 -29
43 -16 19 -30 43 -30 53 0 10 -7 24 -15 31 -8 7 -15 18 -15 24 -1 6 -15 20
-33 31 -19 12 -33 30 -35 45 -2 13 -13 32 -24 42 -20 17 -19 48 2 48 5 0 10 5
10 10 0 6 -7 10 -15 10 -10 0 -15 10 -15 30 0 17 -4 30 -10 30 -5 0 -10 -6
-10 -13 0 -8 -8 -22 -19 -31 -18 -16 -20 -16 -39 8 -11 15 -26 26 -33 26 -7 0
-3 7 9 16 29 20 28 30 -5 42 l-28 9 28 5 c15 3 27 1 27 -3 0 -5 9 -9 20 -9 14
0 20 -6 18 -17 -3 -16 46 -38 64 -27 13 9 9 34 -6 34 -9 0 -12 7 -9 20 3 11 9
20 14 20 5 0 9 9 9 20 0 11 -7 20 -15 20 -12 0 -14 10 -9 53 4 28 12 56 18 60
7 6 4 7 -7 3 -15 -5 -18 -1 -15 21 2 21 11 28 48 39 25 8 68 14 95 15 28 1 77
10 109 20 33 11 70 19 83 19 12 0 23 5 23 10 0 6 11 10 23 10 13 0 27 3 31 8
4 4 69 7 144 8 75 0 161 6 190 13 40 10 56 10 66 1 11 -8 59 -10 174 -5 138 5
160 4 165 -10 8 -21 27 -19 28 3 1 14 2 14 7 -3 4 -11 16 -30 26 -42 11 -12
21 -36 23 -54 2 -18 12 -43 23 -54 11 -12 20 -29 20 -38 0 -9 7 -17 15 -17 8
0 20 -9 27 -20 7 -11 18 -20 25 -20 7 0 13 -11 13 -24 0 -16 7 -27 20 -31 11
-3 20 -15 20 -25 0 -11 9 -24 19 -30 13 -7 18 -17 14 -32 -5 -23 -5 -23 10 -3
9 11 17 15 17 8 0 -27 28 1 48 50 23 54 30 123 12 112 -6 -4 -7 -11 -4 -17 4
-6 1 -9 -7 -6 -8 3 -16 19 -19 37 -3 17 -9 31 -15 29 -14 -4 -35 43 -36 83 -1
19 -1 80 1 136 1 56 -2 108 -6 115 -4 7 -9 21 -9 30 -1 10 -11 29 -23 41 -12
13 -19 27 -15 30 3 4 0 7 -8 7 -8 0 -23 20 -33 45 -29 70 -94 103 -248 125
-32 5 -72 15 -89 24 -30 15 -31 15 -75 -29z m-649 -1875 c-3 -5 -11 -10 -16
-10 -6 0 -7 5 -4 10 3 6 11 10 16 10 6 0 7 -4 4 -10z"/>
<path d="M3145 5291 c-3 -5 -1 -12 5 -16 5 -3 10 1 10 9 0 18 -6 21 -15 7z"/>
<path d="M1633 5273 c-10 -3 -10 -7 0 -18 14 -15 27 -10 27 11 0 14 -6 16 -27
7z"/>
<path d="M5725 4538 c-16 -6 -49 -18 -73 -26 -23 -8 -45 -18 -47 -23 -3 -4 14
-21 38 -37 61 -41 293 -156 347 -171 25 -8 56 -17 70 -21 16 -4 24 -13 22 -24
-2 -9 2 -16 8 -16 5 0 10 -4 10 -10 0 -5 -7 -10 -15 -10 -8 0 -15 -4 -15 -10
0 -5 5 -10 10 -10 7 0 7 -6 0 -20 -6 -11 -17 -20 -25 -20 -8 0 -21 -10 -29
-22 -9 -12 -16 -17 -16 -10 0 6 -7 12 -15 12 -21 0 -19 -13 5 -35 14 -12 27
-16 47 -11 15 4 40 8 54 10 14 1 30 5 35 8 5 3 38 -1 74 -9 36 -8 79 -17 95
-20 17 -3 36 -10 43 -16 8 -6 23 -12 33 -14 18 -3 19 7 19 253 l0 256 -142 -2
c-79 -1 -224 1 -323 3 -115 4 -191 2 -210 -5z"/>
<path d="M3645 4445 c-20 -19 -34 -38 -31 -44 3 -5 -8 -12 -25 -16 -19 -4 -33
-15 -36 -26 -3 -11 -16 -22 -29 -25 -13 -3 -24 -12 -24 -20 0 -8 -5 -14 -11
-14 -5 0 -15 -13 -20 -29 -7 -21 -22 -34 -52 -46 -23 -9 -55 -30 -72 -47 -16
-16 -61 -43 -99 -59 -62 -26 -142 -80 -171 -114 -5 -6 -20 -17 -33 -24 -13 -7
-21 -18 -18 -26 2 -7 -4 -29 -15 -49 -10 -20 -19 -42 -19 -50 0 -7 -7 -19 -15
-26 -11 -9 -15 -32 -15 -81 0 -62 -2 -69 -20 -69 -11 0 -20 -6 -20 -13 0 -14
-35 -47 -50 -47 -6 0 -10 -13 -10 -30 0 -16 -7 -33 -16 -38 -19 -11 -31 -90
-17 -118 5 -10 7 -34 4 -53 -5 -27 -13 -37 -35 -44 -21 -7 -30 -6 -37 4 -5 8
-16 14 -26 15 -10 1 -27 2 -39 3 -13 0 -26 13 -35 33 -22 50 -109 89 -122 56
-3 -7 -6 1 -7 17 l-1 30 -16 -30 c-9 -17 -18 -25 -20 -17 -8 22 -23 13 -24
-15 l0 -28 -10 25 c-7 17 -7 26 0 28 13 4 14 39 2 47 -5 3 -15 -12 -21 -32 -7
-21 -16 -42 -20 -48 -4 -5 -26 -64 -50 -130 l-44 -119 28 -141 c15 -77 37
-187 48 -245 13 -61 22 -151 23 -215 2 -106 6 -143 19 -175 3 -8 8 -30 10 -48
5 -50 59 -87 122 -83 49 3 114 -22 114 -43 0 -21 12 -20 43 4 14 11 28 20 32
20 18 0 34 38 35 78 0 41 1 42 35 42 25 0 33 4 29 14 -3 7 2 16 10 19 8 3 22
22 31 41 9 19 25 38 36 41 10 4 19 13 19 21 0 19 10 18 26 -3 11 -15 15 -16
23 -4 7 11 15 11 43 1 21 -8 47 -10 64 -5 16 4 75 8 131 10 102 3 186 17 232
39 13 6 52 11 87 11 49 0 68 -5 86 -21 13 -12 31 -24 41 -27 10 -4 15 -11 12
-17 -3 -5 5 -25 20 -44 15 -20 23 -40 19 -50 -3 -9 -1 -16 5 -16 6 0 11 6 12
13 0 6 5 -3 10 -20 8 -26 15 -33 34 -33 14 0 42 -9 62 -20 46 -25 54 -25 96
-1 19 11 46 17 65 15 20 -2 35 1 37 9 3 7 29 13 68 14 34 1 71 7 82 12 11 5
54 15 95 20 212 30 211 29 396 209 8 7 14 18 14 25 0 6 8 29 19 51 54 119 64
175 37 205 -9 9 -16 32 -16 49 0 18 -4 32 -10 32 -5 0 -10 9 -10 19 0 11 -4
23 -10 26 -5 3 -10 19 -10 35 0 19 -7 33 -20 40 -11 6 -20 17 -20 25 0 8 -5
15 -10 15 -7 0 -10 28 -8 73 1 39 -1 124 -6 187 -4 63 -7 141 -7 173 1 51 -1
57 -19 57 -11 0 -20 7 -20 15 0 9 -11 21 -25 27 -14 6 -25 14 -25 18 0 4 -25
20 -56 36 -31 16 -64 38 -73 50 -9 11 -24 23 -33 27 -11 4 -18 17 -18 32 0 14
-6 25 -13 25 -27 0 -49 37 -46 77 1 21 -4 49 -11 63 -8 14 -13 36 -11 49 1 13
-3 27 -10 32 -8 5 -12 24 -10 53 3 47 -8 76 -43 114 -20 22 -64 47 -78 44 -3
-1 -21 12 -38 28 -18 17 -35 28 -39 26 -3 -2 -19 5 -36 15 -16 11 -38 22 -47
25 -10 4 -18 13 -18 20 0 8 -8 14 -17 14 -10 0 -29 9 -43 20 -14 11 -33 20
-42 20 -29 0 -47 11 -41 26 3 8 0 14 -6 14 -6 0 -11 -4 -11 -10 0 -5 -6 -8
-12 -6 -7 3 -39 7 -70 10 -54 6 -58 5 -93 -29z m180 -656 c4 -6 17 -14 29 -19
l21 -9 -22 0 c-13 -1 -23 -6 -23 -12 0 -5 4 -8 8 -5 5 3 16 -11 25 -30 21 -42
21 -39 1 -58 -14 -15 -14 -17 0 -32 9 -8 14 -19 11 -24 -11 -17 -66 -32 -100
-26 -34 7 -35 9 -35 51 0 24 -3 52 -6 62 -4 13 -3 14 4 5 7 -10 17 2 37 47 28
61 38 70 50 50z"/>
<path d="M4722 4173 c5 -26 34 -28 41 -3 4 16 0 20 -20 20 -18 0 -24 -5 -21
-17z"/>
<path d="M735 3183 c-66 -42 -140 -91 -165 -108 -25 -17 -87 -60 -137 -94 -51
-34 -93 -68 -93 -75 0 -6 9 -137 19 -291 10 -154 19 -292 20 -307 1 -16 1 -38
2 -50 0 -13 6 -120 13 -238 7 -118 13 -240 14 -270 1 -30 6 -125 11 -210 19
-296 23 -447 12 -455 -6 -3 -11 -16 -12 -28 -1 -20 -2 -20 -9 3 -4 14 -8 19
-9 12 -1 -7 -17 -22 -36 -33 -19 -12 -32 -25 -29 -30 3 -5 -3 -9 -13 -9 -42 0
-163 -34 -163 -47 0 -8 -12 -13 -31 -13 -22 0 -32 -5 -36 -20 -3 -11 -8 -18
-12 -16 -4 3 -13 1 -21 -4 -10 -6 -13 -24 -11 -56 1 -27 0 -104 -4 -172 -7
-110 -10 -125 -26 -129 -18 -5 -19 -20 -19 -274 l0 -269 530 0 c519 0 531 0
553 20 12 11 27 18 35 15 7 -2 15 2 18 10 4 8 14 15 24 15 11 0 22 5 25 10 4
6 14 10 23 9 54 -5 59 -1 71 61 13 63 9 80 -15 80 -8 0 -14 5 -14 10 0 6 7 10
15 10 22 0 19 49 -4 69 -15 13 -21 41 -30 146 -14 156 -26 203 -57 232 -20 18
-22 26 -13 45 5 13 22 30 38 39 26 15 27 18 21 80 -8 75 -5 89 21 89 10 0 19
6 19 13 0 7 9 23 21 36 13 14 22 41 26 76 5 51 4 55 -16 55 -18 0 -21 6 -21
40 l0 40 -50 0 c-39 0 -51 -4 -60 -20 -9 -17 -17 -20 -45 -14 -28 5 -38 1 -65
-25 -31 -29 -32 -34 -28 -86 4 -48 2 -55 -14 -55 -16 0 -17 6 -12 58 4 31 11
59 16 60 15 6 8 31 -11 41 -22 12 -32 43 -20 62 5 8 -1 22 -16 37 -17 17 -25
38 -28 80 -10 106 -21 147 -40 146 -9 -1 -17 4 -17 11 0 7 -6 18 -14 24 -11 9
-20 6 -42 -14 -28 -26 -43 -21 -44 16 0 9 -9 19 -20 22 -14 3 -20 14 -20 32 0
20 -4 26 -14 22 -9 -4 -17 2 -21 14 -14 43 -65 4 -65 -50 0 -14 -9 -20 -37
-23 -21 -3 -41 0 -45 6 -4 6 -11 1 -16 -13 -7 -20 -10 -21 -15 -8 -4 10 -2 17
4 17 7 0 9 20 4 61 -6 47 -4 63 6 70 8 5 9 9 4 9 -7 0 -9 15 -7 35 2 19 8 32
13 29 5 -3 9 -2 10 3 12 114 5 185 -17 176 -19 -7 -19 33 0 44 18 11 38 140
26 164 -6 10 -10 31 -10 48 0 16 -4 33 -10 36 -5 3 -10 28 -10 56 0 27 -4 49
-9 49 -11 0 -31 87 -31 137 0 20 7 41 15 47 10 7 15 32 17 74 1 43 6 62 15 62
7 0 13 5 13 11 0 6 10 9 23 8 38 -5 67 18 67 54 0 73 3 86 18 92 14 5 14 7 2
16 -13 8 -13 10 0 18 8 6 11 13 8 17 -4 4 -1 16 7 28 8 11 15 28 15 38 0 10 9
23 20 30 11 7 20 17 20 21 0 5 7 15 16 24 8 9 13 21 10 29 -3 7 2 18 11 26 12
9 17 10 20 1 5 -13 53 28 53 45 0 6 6 15 14 19 11 6 6 14 -20 33 -39 29 -42
40 -11 41 12 0 16 3 10 6 -22 8 -14 32 15 47 15 8 20 15 12 16 -8 0 -69 -35
-135 -77z m60 -23 c-3 -5 -12 -10 -18 -10 -7 0 -6 4 3 10 19 12 23 12 15 0z
m-307 -801 c-3 -20 -5 -19 -9 9 -3 20 -2 29 4 23 5 -5 7 -19 5 -32z m472
-1149 c0 -5 -5 -10 -11 -10 -5 0 -7 5 -4 10 3 6 8 10 11 10 2 0 4 -4 4 -10z
m-510 -206 c0 -61 -15 -56 -17 6 -1 29 2 48 8 45 5 -4 9 -26 9 -51z m765 -34
c3 -5 1 -10 -4 -10 -6 0 -11 5 -11 10 0 6 2 10 4 10 3 0 8 -4 11 -10z m-775
-34 c0 -3 -4 -8 -10 -11 -5 -3 -10 -1 -10 4 0 6 5 11 10 11 6 0 10 -2 10 -4z
m20 -36 c0 -11 -4 -20 -9 -20 -5 0 -7 9 -4 20 3 11 7 20 9 20 2 0 4 -9 4 -20z
m795 -730 c3 -5 1 -10 -4 -10 -6 0 -11 5 -11 10 0 6 2 10 4 10 3 0 8 -4 11
-10z"/>
<path d="M6240 1910 c0 -5 -7 -10 -15 -10 -8 0 -24 -18 -35 -40 -11 -22 -27
-40 -34 -40 -8 0 -17 -13 -21 -30 -7 -30 -20 -40 -27 -19 -2 7 -9 5 -17 -5
-11 -14 -11 -16 3 -16 17 0 19 -11 10 -47 -4 -14 -14 -23 -25 -23 -11 0 -19
-7 -19 -17 0 -9 -3 -13 -7 -9 -4 3 -12 -8 -17 -26 -11 -34 -31 -44 -69 -34
-20 5 -37 26 -53 69 -8 21 -54 23 -54 3 0 -8 -8 -17 -18 -21 -27 -8 -39 -41
-47 -128 -7 -73 -6 -77 13 -77 11 0 23 6 25 13 3 6 3 -3 0 -22 -4 -24 -3 -32
5 -27 15 9 29 -19 37 -76 7 -45 15 -54 46 -50 4 1 5 -8 2 -18 -5 -17 0 -20 30
-20 30 0 42 -7 68 -40 18 -22 38 -40 45 -40 6 0 15 -11 18 -24 4 -18 12 -24
26 -21 21 4 31 -15 32 -65 1 -17 5 -33 10 -36 4 -3 8 -14 8 -25 0 -10 5 -19
11 -19 13 0 8 -62 -6 -72 -5 -4 10 -23 33 -44 24 -20 42 -44 41 -53 -5 -55 6
-62 99 -67 l62 -3 0 579 0 579 -60 7 c-33 4 -63 11 -66 15 -7 12 -34 11 -34
-1z m-24 -536 c-3 -8 -1 -14 4 -14 15 0 12 -15 -9 -38 -19 -23 -51 -30 -51
-12 0 6 9 19 20 30 11 11 17 26 14 35 -4 8 -3 23 1 33 6 16 7 16 17 -1 5 -10
7 -25 4 -33z"/>
<path d="M721 1803 c0 -6 -10 -9 -21 -6 -25 7 -26 -5 -2 -23 15 -12 13 -13
-20 -14 -21 0 -38 -4 -38 -10 0 -5 24 -10 54 -10 41 0 55 4 60 16 4 9 4 19 1
22 -3 3 -5 0 -5 -6 0 -24 -19 -11 -23 16 -2 15 -5 22 -6 15z"/>
<path d="M2793 1560 c-23 -5 -51 -14 -62 -19 -11 -6 -29 -11 -40 -11 -12 0
-21 -4 -21 -10 0 -5 -6 -10 -14 -10 -8 0 -27 -7 -43 -15 -15 -8 -54 -22 -85
-31 -43 -12 -68 -27 -96 -58 -21 -22 -58 -59 -83 -80 -24 -22 -46 -49 -49 -60
-3 -12 -18 -23 -37 -28 -18 -5 -34 -16 -37 -26 -3 -9 -20 -23 -37 -31 -38 -17
-119 -97 -150 -149 -32 -54 -69 -91 -85 -85 -7 2 -10 11 -7 19 3 9 -2 14 -16
14 -12 0 -25 -8 -28 -17 -4 -10 -15 -24 -25 -31 -10 -7 -18 -20 -18 -28 0 -8
-8 -24 -18 -34 -30 -32 -99 -179 -134 -285 -28 -84 -33 -115 -33 -190 0 -83 3
-94 33 -146 42 -74 54 -84 84 -68 13 7 28 19 35 28 21 28 36 -3 37 -76 1 -37
-2 -73 -6 -78 -11 -17 7 -37 36 -38 14 -1 26 -5 26 -9 0 -5 18 -8 40 -8 22 0
40 4 40 10 0 5 11 12 24 16 15 3 27 15 30 30 7 28 37 32 56 9 12 -14 15 -13
32 5 10 11 23 20 28 20 6 0 10 7 10 15 0 8 9 15 19 15 30 0 51 11 51 26 0 9
11 14 28 14 30 0 31 5 34 112 1 32 5 55 10 52 4 -3 8 6 8 20 0 14 -4 28 -10
31 -5 3 -10 13 -10 21 0 8 5 12 11 8 7 -4 10 12 7 52 -4 52 -7 59 -26 62 -25
4 -27 14 -11 43 10 19 9 20 -11 9 -12 -6 -24 -9 -27 -7 -2 3 -30 -3 -60 -14
-72 -24 -79 -18 -14 12 28 12 51 26 51 31 0 9 73 48 91 48 6 0 25 7 42 15 18
8 51 21 75 30 109 39 128 47 143 61 8 8 25 14 36 14 11 0 32 9 46 20 14 11 33
20 42 20 9 0 14 4 11 9 -3 4 6 6 19 3 15 -2 25 0 25 7 0 6 7 11 15 11 9 0 46
10 83 22 59 19 87 22 237 20 207 -2 396 -2 404 0 20 5 170 -16 166 -22 -3 -5
15 -18 40 -29 25 -11 45 -24 45 -30 0 -5 8 -7 18 -4 26 6 87 -12 85 -25 -4
-18 75 -31 220 -36 55 -2 104 -9 110 -15 6 -6 28 -11 48 -11 21 0 50 -5 66
-12 28 -11 37 -14 61 -16 10 -2 10 -6 0 -22 -15 -24 -61 -26 -98 -5 -22 12
-27 11 -42 -2 -10 -9 -18 -11 -18 -6 0 12 -56 24 -105 24 -16 -1 -53 6 -82 14
-28 8 -66 15 -85 15 -18 -1 -71 2 -118 6 -47 3 -101 2 -120 -3 -36 -10 -40
-21 -28 -88 2 -16 -3 -21 -29 -23 -36 -4 -46 -22 -13 -22 33 0 94 -45 115 -84
16 -30 21 -33 27 -19 5 15 7 13 7 -6 1 -24 2 -24 15 -5 14 18 15 18 21 -8 5
-19 15 -29 36 -33 16 -4 27 -11 23 -16 -5 -10 2 -13 49 -23 16 -4 25 -11 21
-17 -4 -7 -9 -8 -13 -1 -5 7 -39 9 -61 2 -3 -1 15 -8 40 -16 56 -17 97 -18
103 -1 4 9 6 9 6 0 1 -7 10 -13 20 -13 11 0 22 -4 25 -9 5 -8 156 -24 206 -21
14 0 64 2 111 3 49 2 93 8 101 15 8 6 17 9 20 6 9 -8 21 93 22 178 1 71 -1 78
-22 88 -13 5 -20 15 -17 20 9 14 152 13 178 -2 12 -6 50 -12 84 -12 45 -1 64
-5 68 -16 5 -13 7 -13 15 0 6 9 27 15 57 17 26 1 59 7 73 15 35 19 90 77 90
95 0 9 6 13 15 10 8 -4 17 -2 20 3 3 5 -3 10 -12 13 -10 2 1 8 25 12 51 9 62
22 29 34 -28 11 -37 43 -37 128 0 34 -7 68 -20 94 -23 45 -146 169 -168 169
-8 0 -12 6 -9 15 4 8 2 17 -3 20 -5 3 -7 12 -4 20 3 7 1 22 -5 33 -9 17 -20
19 -86 18 -41 0 -75 0 -75 2 0 1 10 6 22 11 13 5 -13 6 -61 3 -56 -3 -82 -1
-78 5 4 6 -2 13 -13 16 -11 3 -20 2 -20 -1 0 -4 -68 -8 -150 -10 -135 -3 -150
-2 -150 13 0 11 -5 15 -15 12 -8 -4 -17 -2 -21 4 -4 7 -10 6 -19 -1 -9 -8 -14
-6 -19 5 -3 9 -11 13 -16 10 -12 -8 -139 22 -157 37 -9 7 -13 6 -13 -3 -1 -10
-4 -10 -13 3 -9 11 -27 17 -53 16 -50 0 -275 41 -290 53 -7 5 -74 12 -150 14
-76 3 -152 9 -168 15 -38 11 -152 29 -226 35 -91 7 -134 17 -156 36 -24 23
-93 31 -151 19z m277 -480 c0 -6 7 -10 15 -10 18 0 20 17 3 23 -7 2 -10 7 -6
11 3 4 18 0 33 -10 26 -17 26 -18 9 -31 -12 -9 -31 -12 -51 -8 -23 4 -45 -1
-80 -19 -26 -13 -66 -32 -88 -42 -22 -9 -48 -21 -58 -26 -35 -17 -109 -39
-114 -34 -3 3 6 10 21 15 14 6 26 15 26 21 0 5 8 10 18 10 15 1 16 2 1 13 -15
11 -15 14 0 27 8 8 20 15 26 15 5 1 20 6 33 13 19 11 22 10 22 -4 0 -10 3 -14
8 -10 4 4 7 13 7 19 0 8 20 12 55 12 30 0 60 3 67 8 6 4 19 4 30 0 17 -6 16
-5 -2 17 l-20 23 23 -12 c12 -6 22 -16 22 -21z m168 8 c2 -4 13 -8 25 -7 21 0
21 1 2 10 -17 8 -17 9 5 4 14 -2 36 -5 49 -5 16 0 21 -4 17 -15 -6 -18 24 -21
41 -4 13 13 44 -4 62 -34 10 -15 10 -17 0 -12 -8 5 -10 4 -5 -3 4 -7 23 -12
42 -12 19 0 34 -4 34 -10 0 -5 -12 -7 -27 -5 -32 6 -236 34 -305 42 -49 6 -66
22 -25 24 12 0 16 3 10 6 -23 9 -14 23 15 23 21 0 24 2 12 10 -11 8 -7 9 15 4
17 -4 32 -11 33 -16z m-1158 -577 c0 -11 -26 -21 -53 -20 -19 1 -18 3 8 14 36
17 45 18 45 6z m-90 -56 c10 -12 9 -16 -5 -21 -19 -8 -40 9 -31 25 10 15 21
14 36 -4z m-13 -67 c-3 -8 -6 -5 -6 6 -1 11 2 17 5 13 3 -3 4 -12 1 -19z"/>
<path d="M2958 1049 c-10 -5 -18 -14 -18 -19 0 -17 15 -11 28 10 14 23 13 23
-10 9z"/>
<path d="M3188 1063 c7 -3 16 -2 19 1 4 3 -2 6 -13 5 -11 0 -14 -3 -6 -6z"/>
<path d="M3375 1040 c-18 -8 -17 -9 8 -9 15 -1 27 4 27 9 0 12 -8 12 -35 0z"/>
<path d="M5731 1534 c0 -11 3 -14 6 -6 3 7 2 16 -1 19 -3 4 -6 -2 -5 -13z"/>
<path d="M1098 1203 c7 -3 16 -2 19 1 4 3 -2 6 -13 5 -11 0 -14 -3 -6 -6z"/>
<path d="M1406 1073 c0 -43 4 -59 15 -61 12 -2 15 9 15 58 -1 46 -4 60 -16 60
-12 0 -15 -13 -14 -57z"/>
<path d="M1330 921 c0 -5 9 -11 20 -14 13 -3 20 0 20 9 0 8 -9 14 -20 14 -11
0 -20 -4 -20 -9z"/>
<path d="M6298 713 c7 -3 16 -2 19 1 4 3 -2 6 -13 5 -11 0 -14 -3 -6 -6z"/>
<path d="M2690 680 c-8 -5 -24 -10 -36 -10 -11 0 -40 -10 -64 -23 -43 -23 -44
-23 -47 -84 -3 -56 -1 -63 19 -74 13 -7 26 -16 29 -22 10 -15 165 -15 162 1
-2 6 6 12 17 12 13 0 20 7 20 19 0 11 11 32 25 47 17 19 22 31 15 39 -5 6 -7
15 -3 18 3 4 -6 7 -20 7 -17 0 -27 5 -27 14 0 8 -6 17 -12 19 -8 3 -5 6 5 6
10 1 28 6 40 13 22 12 21 12 -8 19 -46 10 -98 10 -115 -1z"/>
<path d="M6277 673 c-11 -10 -8 -33 4 -33 6 0 17 6 24 14 12 12 12 15 -1 20
-19 7 -19 7 -27 -1z"/>
<path d="M2405 613 c-16 -3 -35 -9 -41 -14 -6 -5 -18 -7 -26 -4 -18 7 -32 -21
-16 -31 6 -4 8 -3 5 3 -6 10 16 17 88 30 17 2 34 9 40 14 9 9 4 10 -50 2z"/>
<path d="M2985 560 c3 -5 13 -10 21 -10 8 0 12 5 9 10 -3 6 -13 10 -21 10 -8
0 -12 -4 -9 -10z"/>
</g>
</svg>
